IKResults
version=1
nRows=14
nColumns=40
inDegrees=yes

Units are S.I. units (second, meters, Newtons, ...)
If the header above contains a line with 'inDegrees', this indicates whether rotational values are in degrees (yes) or radians (no).

endheader
time	pelvis_tilt	pelvis_list	pelvis_rotation	pelvis_tx	pelvis_ty	pelvis_tz	hip_flexion_r	hip_adduction_r	hip_rotation_r	knee_angle_r	knee_angle_r_beta	ankle_angle_r	subtalar_angle_r	mtp_angle_r	hip_flexion_l	hip_adduction_l	hip_rotation_l	knee_angle_l	knee_angle_l_beta	ankle_angle_l	subtalar_angle_l	mtp_angle_l	lumbar_extension	lumbar_bending	lumbar_rotation	arm_flex_r	arm_add_r	arm_rot_r	elbow_flex_r	pro_sup_r	wrist_flex_r	wrist_dev_r	arm_flex_l	arm_add_l	arm_rot_l	elbow_flex_l	pro_sup_l	wrist_flex_l	wrist_dev_l
      2.81000000	    -19.57271804	      0.59387039	     -0.58555983	     -0.29036650	      0.81920953	     -0.90034715	     43.31167683	    -10.97997126	     -6.03085347	     40.54494702	      0.70764282	     18.67854319	      0.00000000	      0.00000000	     43.26344403	    -10.55303897	     -0.89597921	     37.89006423	      0.66130637	     19.16569123	      0.00000000	      0.00000000	     -2.24124042	     -0.24542753	     -0.77950363	    -18.68917807	    -43.70718635	     33.49651370	     88.42095628	     44.98530540	      0.00000000	      0.00000000	    -25.68033498	    -42.85896353	     25.24867008	     91.38658247	      7.18917504	      0.00000000	      0.00000000
      2.81500000	    -19.65737424	      0.62567874	     -0.55390579	     -0.29089311	      0.81823362	     -0.90041989	     43.62605326	    -11.09435650	     -6.08030827	     40.90523522	      0.71393104	     18.76880693	      0.00000000	      0.00000000	     43.56835081	    -10.54147812	     -0.93064414	     38.23431654	      0.66731471	     19.38665418	      0.00000000	      0.00000000	     -2.36254842	     -0.27207136	     -0.81283697	    -18.78206834	    -43.68326476	     33.33696377	     88.63344576	     45.19075292	      0.00000000	      0.00000000	    -25.72704381	    -42.84693111	     25.17955142	     91.47686153	      7.02436796	      0.00000000	      0.00000000
      2.82000000	    -19.84831345	      0.64970612	     -0.60672648	     -0.29132227	      0.81707097	     -0.90043501	     44.07155316	    -11.11910795	     -5.99033907	     41.24318294	      0.71982934	     18.86717513	      0.00000000	      0.00000000	     43.96691666	    -10.58322620	     -0.95800522	     38.57709809	      0.67329738	     19.52128112	      0.00000000	      0.00000000	     -2.32151809	     -0.26717607	     -0.89201111	    -18.60040250	    -43.75680991	     33.47497848	     88.46854946	     45.43706699	      0.00000000	      0.00000000	    -26.04900927	    -42.81378230	     24.95009029	     91.53095299	      6.88463851	      0.00000000	      0.00000000
      2.82500000	    -20.01323401	      0.65049382	     -0.57122478	     -0.29186600	      0.81597904	     -0.90051774	     44.46968294	    -11.20959548	     -6.06019492	     41.59632177	      0.72599277	     18.93285036	      0.00000000	      0.00000000	     44.37988295	    -10.59332407	     -0.91874771	     38.92472864	      0.67936468	     19.65066768	      0.00000000	      0.00000000	     -2.33793578	     -0.26163688	     -0.88595056	    -18.69263641	    -43.72540111	     33.39590901	     88.51417297	     45.54191019	      0.00000000	      0.00000000	    -26.09118922	    -42.80131538	     24.91209803	     91.61671417	      6.87972769	      0.00000000	      0.00000000
      2.83000000	    -20.08188399	      0.68153771	     -0.51542804	     -0.29232829	      0.81501434	     -0.90064713	     44.74955784	    -11.31706655	     -6.03483273	     41.93118126	      0.73183717	     19.10423942	      0.00000000	      0.00000000	     44.67865838	    -10.57101537	     -0.89715624	     39.29003027	      0.68574039	     19.80915039	      0.00000000	      0.00000000	     -2.43974144	     -0.26810061	     -0.94732288	    -18.56543885	    -43.84922597	     33.56189334	     88.48297483	     45.59456179	      0.00000000	      0.00000000	    -26.01649220	    -42.93669189	     25.11247805	     91.61094806	      6.93854622	      0.00000000	      0.00000000
      2.83500000	    -20.17869659	      0.69953970	     -0.52650870	     -0.29269810	      0.81399189	     -0.90060424	     45.06478686	    -11.35463661	     -5.96467753	     42.25120049	      0.73742256	     19.26704016	      0.00000000	      0.00000000	     44.99594092	    -10.61315888	     -0.92383442	     39.64418039	      0.69192148	     19.91245578	      0.00000000	      0.00000000	     -2.50442658	     -0.28454432	     -1.05415790	    -18.27876484	    -43.86131759	     33.81877391	     88.40675198	     45.65469742	      0.00000000	      0.00000000	    -26.22447382	    -43.00545844	     25.00877075	     91.73371488	      6.91354111	      0.00000000	      0.00000000
      2.84000000	    -20.27201508	      0.68938322	     -0.49066498	     -0.29326018	      0.81294777	     -0.90067382	     45.38910311	    -11.42093886	     -6.01243899	     42.60312621	      0.74356482	     19.35499059	      0.00000000	      0.00000000	     45.36756835	    -10.63325769	     -0.87188357	     40.06417857	      0.69925183	     20.05696472	      0.00000000	      0.00000000	     -2.57356028	     -0.25596379	     -1.04992798	    -18.11684378	    -44.11869452	     34.23972143	     88.50094456	     45.75386309	      0.00000000	      0.00000000	    -26.06198708	    -43.11061738	     25.21907608	     91.75142638	      6.88565088	      0.00000000	      0.00000000
      2.84500000	    -20.42102713	      0.74562875	     -0.47989070	     -0.29364088	      0.81187663	     -0.90075510	     45.77571840	    -11.52005845	     -5.95000741	     42.96018504	      0.74979668	     19.51556703	      0.00000000	      0.00000000	     45.71360382	    -10.60466414	     -0.88398974	     40.37916988	      0.70474946	     20.17841870	      0.00000000	      0.00000000	     -2.55623727	     -0.31002893	     -1.11531552	    -17.85698373	    -44.16959722	     34.57147470	     88.33925850	     45.90789976	      0.00000000	      0.00000000	    -26.00736663	    -43.30224050	     25.46115906	     91.76455891	      7.00550674	      0.00000000	      0.00000000
      2.85000000	    -20.55091056	      0.75545468	     -0.45539010	     -0.29412620	      0.81091646	     -0.90080891	     46.10606048	    -11.58674785	     -5.95468483	     43.24002905	      0.75468088	     19.56750321	      0.00000000	      0.00000000	     46.06404405	    -10.61513854	     -0.86815257	     40.69934734	      0.71033761	     20.28127145	      0.00000000	      0.00000000	     -2.63406549	     -0.29541531	     -1.10388681	    -18.04539067	    -44.13773726	     34.25125750	     88.49415842	     45.97304776	      0.00000000	      0.00000000	    -26.08141460	    -43.15043875	     25.18326048	     91.77753286	      6.91820248	      0.00000000	      0.00000000
      2.85500000	    -20.68486992	      0.79177452	     -0.49854310	     -0.29454780	      0.80977455	     -0.90068221	     46.49151605	    -11.61573443	     -5.86205034	     43.59725918	      0.76091572	     19.69907671	      0.00000000	      0.00000000	     46.41436452	    -10.66157439	     -0.90988072	     41.07360381	      0.71686962	     20.45467881	      0.00000000	      0.00000000	     -2.64140280	     -0.33308339	     -1.07865728	    -17.91987222	    -44.22641644	     34.46924962	     88.46522354	     46.07972017	      0.00000000	      0.00000000	    -26.06955282	    -43.33606137	     25.35773933	     91.92343114	      6.90689097	      0.00000000	      0.00000000
      2.86000000	    -20.73322903	      0.77569536	     -0.45549593	     -0.29478332	      0.80886663	     -0.90075587	     46.71440388	    -11.68856339	     -5.93409672	     43.91948658	      0.76653965	     19.86124094	      0.00000000	      0.00000000	     46.68847433	    -10.68744474	     -0.89002337	     41.43394056	      0.72315868	     20.56379061	      0.00000000	      0.00000000	     -2.78064628	     -0.30630221	     -1.20092435	    -17.82055824	    -44.25116825	     34.53593877	     88.41538576	     46.18299119	      0.00000000	      0.00000000	    -26.39538303	    -43.21928437	     24.85276668	     92.13769606	      6.80610105	      0.00000000	      0.00000000
      2.86500000	    -20.81850166	      0.75572678	     -0.42022555	     -0.29510529	      0.80792189	     -0.90088837	     46.96681161	    -11.74448501	     -5.97854379	     44.18839046	      0.77123290	     19.95486192	      0.00000000	      0.00000000	     46.98559284	    -10.70057563	     -0.81548268	     41.74019935	      0.72850391	     20.69115840	      0.00000000	      0.00000000	     -2.86179886	     -0.24931931	     -1.18690786	    -17.85668597	    -44.44869903	     34.59654505	     88.70719755	     46.27098627	      0.00000000	      0.00000000	    -26.25499103	    -43.15726581	     24.92111302	     92.00400237	      7.07663712	      0.00000000	      0.00000000
      2.87000000	    -20.88191022	      0.87950159	     -0.45455749	     -0.29543059	      0.80699170	     -0.90083171	     47.29828455	    -11.86537164	     -5.84679898	     44.56364141	      0.77778227	     20.07047037	      0.00000000	      0.00000000	     47.19915134	    -10.65595138	     -0.91949073	     42.03229965	      0.73360202	     20.80825098	      0.00000000	      0.00000000	     -2.96371580	     -0.40006022	     -1.14872979	    -17.86067454	    -44.32173622	     34.51549938	     88.54849053	     46.32194440	      0.00000000	      0.00000000	    -26.33884212	    -43.32260594	     24.95392772	     92.23504212	      6.83590863	      0.00000000	      0.00000000
      2.87500000	    -20.96656351	      0.88253295	     -0.42326637	     -0.29561471	      0.80608183	     -0.90092543	     47.54473890	    -11.94921521	     -5.91291960	     44.82971600	      0.78242615	     20.25340856	      0.00000000	      0.00000000	     47.46398367	    -10.66038683	     -0.90203257	     42.31774148	      0.73858392	     20.94142872	      0.00000000	      0.00000000	     -3.00494534	     -0.38166043	     -1.15611288	    -17.69907159	    -44.46838688	     34.80291217	     88.52662456	     46.46644414	      0.00000000	      0.00000000	    -26.13245737	    -43.56609134	     25.49550523	     92.20892499	      7.00749177	      0.00000000	      0.00000000
